<svg width="1200" height="648" viewBox="0 0 1200 648" fill="none" xmlns="http://www.w3.org/2000/svg">
<g clip-path="url(#clip0_609_536)">
<path d="M1148 12H52C29.9086 12 12 29.9086 12 52V596C12 618.091 29.9086 636 52 636H1148C1170.09 636 1188 618.091 1188 596V52C1188 29.9086 1170.09 12 1148 12Z" stroke="black" stroke-width="24"/>
<path d="M1140 36H60C46.7452 36 36 46.7452 36 60V588C36 601.255 46.7452 612 60 612H1140C1153.25 612 1164 601.255 1164 588V60C1164 46.7452 1153.25 36 1140 36Z" fill="black"/>
<path d="M101 52H68C59.1634 52 52 59.1634 52 68V132C52 140.837 59.1634 148 68 148H101C109.837 148 117 140.837 117 132V68C117 59.1634 109.837 52 101 52Z" fill="white"/>
<path d="M182 52H149C140.163 52 133 59.1634 133 68V132C133 140.837 140.163 148 149 148H182C190.837 148 198 140.837 198 132V68C198 59.1634 190.837 52 182 52Z" fill="white"/>
<path d="M263 52H230C221.163 52 214 59.1634 214 68V132C214 140.837 221.163 148 230 148H263C271.837 148 279 140.837 279 132V68C279 59.1634 271.837 52 263 52Z" fill="white"/>
<path d="M344 52H311C302.163 52 295 59.1634 295 68V132C295 140.837 302.163 148 311 148H344C352.837 148 360 140.837 360 132V68C360 59.1634 352.837 52 344 52Z" fill="white"/>
<path d="M425 52H392C383.163 52 376 59.1634 376 68V132C376 140.837 383.163 148 392 148H425C433.837 148 441 140.837 441 132V68C441 59.1634 433.837 52 425 52Z" fill="white"/>
<path d="M506 52H473C464.163 52 457 59.1634 457 68V132C457 140.837 464.163 148 473 148H506C514.837 148 522 140.837 522 132V68C522 59.1634 514.837 52 506 52Z" fill="white"/>
<path d="M587 52H554C545.163 52 538 59.1634 538 68V132C538 140.837 545.163 148 554 148H587C595.837 148 603 140.837 603 132V68C603 59.1634 595.837 52 587 52Z" fill="white"/>
<path d="M668 52H635C626.163 52 619 59.1634 619 68V132C619 140.837 626.163 148 635 148H668C676.837 148 684 140.837 684 132V68C684 59.1634 676.837 52 668 52Z" fill="white"/>
<path d="M749 52H716C707.163 52 700 59.1634 700 68V132C700 140.837 707.163 148 716 148H749C757.837 148 765 140.837 765 132V68C765 59.1634 757.837 52 749 52Z" fill="white"/>
<path d="M830 52H797C788.163 52 781 59.1634 781 68V132C781 140.837 788.163 148 797 148H830C838.837 148 846 140.837 846 132V68C846 59.1634 838.837 52 830 52Z" fill="white"/>
<path d="M911 52H878C869.163 52 862 59.1634 862 68V132C862 140.837 869.163 148 878 148H911C919.837 148 927 140.837 927 132V68C927 59.1634 919.837 52 911 52Z" fill="white"/>
<path d="M992 52H959C950.163 52 943 59.1634 943 68V132C943 140.837 950.163 148 959 148H992C1000.84 148 1008 140.837 1008 132V68C1008 59.1634 1000.84 52 992 52Z" fill="white"/>
<path d="M1132 52H1040C1031.16 52 1024 59.1634 1024 68V132C1024 140.837 1031.16 148 1040 148H1132C1140.84 148 1148 140.837 1148 132V68C1148 59.1634 1140.84 52 1132 52Z" fill="white"/>
<path d="M101 164H68C59.1634 164 52 171.163 52 180V244C52 252.837 59.1634 260 68 260H101C109.837 260 117 252.837 117 244V180C117 171.163 109.837 164 101 164Z" fill="white"/>
<path d="M182 164H149C140.163 164 133 171.163 133 180V244C133 252.837 140.163 260 149 260H182C190.837 260 198 252.837 198 244V180C198 171.163 190.837 164 182 164Z" fill="white"/>
<path d="M263 164H230C221.163 164 214 171.163 214 180V244C214 252.837 221.163 260 230 260H263C271.837 260 279 252.837 279 244V180C279 171.163 271.837 164 263 164Z" fill="white"/>
<path d="M344 164H311C302.163 164 295 171.163 295 180V244C295 252.837 302.163 260 311 260H344C352.837 260 360 252.837 360 244V180C360 171.163 352.837 164 344 164Z" fill="white"/>
<path d="M425 164H392C383.163 164 376 171.163 376 180V244C376 252.837 383.163 260 392 260H425C433.837 260 441 252.837 441 244V180C441 171.163 433.837 164 425 164Z" fill="white"/>
<path d="M506 164H473C464.163 164 457 171.163 457 180V244C457 252.837 464.163 260 473 260H506C514.837 260 522 252.837 522 244V180C522 171.163 514.837 164 506 164Z" fill="white"/>
<path d="M587 164H554C545.163 164 538 171.163 538 180V244C538 252.837 545.163 260 554 260H587C595.837 260 603 252.837 603 244V180C603 171.163 595.837 164 587 164Z" fill="white"/>
<path d="M668 164H635C626.163 164 619 171.163 619 180V244C619 252.837 626.163 260 635 260H668C676.837 260 684 252.837 684 244V180C684 171.163 676.837 164 668 164Z" fill="white"/>
<path d="M749 164H716C707.163 164 700 171.163 700 180V244C700 252.837 707.163 260 716 260H749C757.837 260 765 252.837 765 244V180C765 171.163 757.837 164 749 164Z" fill="white"/>
<path d="M830 164H797C788.163 164 781 171.163 781 180V244C781 252.837 788.163 260 797 260H830C838.837 260 846 252.837 846 244V180C846 171.163 838.837 164 830 164Z" fill="white"/>
<path d="M911 164H878C869.163 164 862 171.163 862 180V244C862 252.837 869.163 260 878 260H911C919.837 260 927 252.837 927 244V180C927 171.163 919.837 164 911 164Z" fill="white"/>
<path d="M156 276H68C59.1634 276 52 283.163 52 292V356C52 364.837 59.1634 372 68 372H156C164.837 372 172 364.837 172 356V292C172 283.163 164.837 276 156 276Z" fill="white"/>
<path d="M237 276H204C195.163 276 188 283.163 188 292V356C188 364.837 195.163 372 204 372H237C245.837 372 253 364.837 253 356V292C253 283.163 245.837 276 237 276Z" fill="white"/>
<path d="M318 276H285C276.163 276 269 283.163 269 292V356C269 364.837 276.163 372 285 372H318C326.837 372 334 364.837 334 356V292C334 283.163 326.837 276 318 276Z" fill="white"/>
<path d="M399 276H366C357.163 276 350 283.163 350 292V356C350 364.837 357.163 372 366 372H399C407.837 372 415 364.837 415 356V292C415 283.163 407.837 276 399 276Z" fill="white"/>
<path d="M480 276H447C438.163 276 431 283.163 431 292V356C431 364.837 438.163 372 447 372H480C488.837 372 496 364.837 496 356V292C496 283.163 488.837 276 480 276Z" fill="white"/>
<path d="M561 276H528C519.163 276 512 283.163 512 292V356C512 364.837 519.163 372 528 372H561C569.837 372 577 364.837 577 356V292C577 283.163 569.837 276 561 276Z" fill="white"/>
<path d="M642 276H609C600.163 276 593 283.163 593 292V356C593 364.837 600.163 372 609 372H642C650.837 372 658 364.837 658 356V292C658 283.163 650.837 276 642 276Z" fill="white"/>
<path d="M723 276H690C681.163 276 674 283.163 674 292V356C674 364.837 681.163 372 690 372H723C731.837 372 739 364.837 739 356V292C739 283.163 731.837 276 723 276Z" fill="white"/>
<path d="M804 276H771C762.163 276 755 283.163 755 292V356C755 364.837 762.163 372 771 372H804C812.837 372 820 364.837 820 356V292C820 283.163 812.837 276 804 276Z" fill="white"/>
<path d="M885 276H852C843.163 276 836 283.163 836 292V356C836 364.837 843.163 372 852 372H885C893.837 372 901 364.837 901 356V292C901 283.163 893.837 276 885 276Z" fill="white"/>
<path d="M966 276H933C924.163 276 917 283.163 917 292V356C917 364.837 924.163 372 933 372H966C974.837 372 982 364.837 982 356V292C982 283.163 974.837 276 966 276Z" fill="white"/>
<path d="M959 180H1132V356H1014V244H959V180Z" fill="white" stroke="white" stroke-width="32" stroke-linejoin="round"/>
<path d="M196 388H68C59.1634 388 52 395.163 52 404V468C52 476.837 59.1634 484 68 484H196C204.837 484 212 476.837 212 468V404C212 395.163 204.837 388 196 388Z" fill="white"/>
<path d="M277 388H244C235.163 388 228 395.163 228 404V468C228 476.837 235.163 484 244 484H277C285.837 484 293 476.837 293 468V404C293 395.163 285.837 388 277 388Z" fill="white"/>
<path d="M358 388H325C316.163 388 309 395.163 309 404V468C309 476.837 316.163 484 325 484H358C366.837 484 374 476.837 374 468V404C374 395.163 366.837 388 358 388Z" fill="white"/>
<path d="M439 388H406C397.163 388 390 395.163 390 404V468C390 476.837 397.163 484 406 484H439C447.837 484 455 476.837 455 468V404C455 395.163 447.837 388 439 388Z" fill="white"/>
<path d="M520 388H487C478.163 388 471 395.163 471 404V468C471 476.837 478.163 484 487 484H520C528.837 484 536 476.837 536 468V404C536 395.163 528.837 388 520 388Z" fill="white"/>
<path d="M601 388H568C559.163 388 552 395.163 552 404V468C552 476.837 559.163 484 568 484H601C609.837 484 617 476.837 617 468V404C617 395.163 609.837 388 601 388Z" fill="white"/>
<path d="M682 388H649C640.163 388 633 395.163 633 404V468C633 476.837 640.163 484 649 484H682C690.837 484 698 476.837 698 468V404C698 395.163 690.837 388 682 388Z" fill="white"/>
<path d="M763 388H730C721.163 388 714 395.163 714 404V468C714 476.837 721.163 484 730 484H763C771.837 484 779 476.837 779 468V404C779 395.163 771.837 388 763 388Z" fill="white"/>
<path d="M844 388H811C802.163 388 795 395.163 795 404V468C795 476.837 802.163 484 811 484H844C852.837 484 860 476.837 860 468V404C860 395.163 852.837 388 844 388Z" fill="white"/>
<path d="M925 388H892C883.163 388 876 395.163 876 404V468C876 476.837 883.163 484 892 484H925C933.837 484 941 476.837 941 468V404C941 395.163 933.837 388 925 388Z" fill="white"/>
<path d="M1132 388H973C964.163 388 957 395.163 957 404V468C957 476.837 964.163 484 973 484H1132C1140.84 484 1148 476.837 1148 468V404C1148 395.163 1140.84 388 1132 388Z" fill="white"/>
<path d="M116 500H68C59.1634 500 52 507.163 52 516V580C52 588.837 59.1634 596 68 596H116C124.837 596 132 588.837 132 580V516C132 507.163 124.837 500 116 500Z" fill="white"/>
<path d="M212 500H164C155.163 500 148 507.163 148 516V580C148 588.837 155.163 596 164 596H212C220.837 596 228 588.837 228 580V516C228 507.163 220.837 500 212 500Z" fill="white"/>
<path d="M308 500H260C251.163 500 244 507.163 244 516V580C244 588.837 251.163 596 260 596H308C316.837 596 324 588.837 324 580V516C324 507.163 316.837 500 308 500Z" fill="white"/>
<path d="M844 500H356C347.163 500 340 507.163 340 516V580C340 588.837 347.163 596 356 596H844C852.837 596 860 588.837 860 580V516C860 507.163 852.837 500 844 500Z" fill="white"/>
<path d="M940 500H892C883.163 500 876 507.163 876 516V580C876 588.837 883.163 596 892 596H940C948.837 596 956 588.837 956 580V516C956 507.163 948.837 500 940 500Z" fill="white"/>
<path d="M1040 500H984C977.373 500 972 505.373 972 512V528C972 534.627 977.373 540 984 540H1040C1046.63 540 1052 534.627 1052 528V512C1052 505.373 1046.63 500 1040 500Z" fill="white"/>
<path d="M1040 556H984C977.373 556 972 561.373 972 568V584C972 590.627 977.373 596 984 596H1040C1046.63 596 1052 590.627 1052 584V568C1052 561.373 1046.63 556 1040 556Z" fill="white"/>
<path d="M1132 500H1084C1075.16 500 1068 507.163 1068 516V580C1068 588.837 1075.16 596 1084 596H1132C1140.84 596 1148 588.837 1148 580V516C1148 507.163 1140.84 500 1132 500Z" fill="white"/>
</g>
<defs>
<clipPath id="clip0_609_536">
<rect width="1200" height="648" fill="white"/>
</clipPath>
</defs>
</svg>
